<svg width="138" height="38" viewBox="0 0 138 38" fill="none" xmlns="http://www.w3.org/2000/svg">
<path d="M13.7316 37.7999H14.2684C16.5233 37.7974 18.6851 36.9005 20.2795 35.3061C21.8739 33.7116 22.7708 31.5498 22.7734 29.295V24.9092C24.4061 23.5984 25.7234 21.9376 26.6281 20.0493C27.5327 18.1611 28.0016 16.0937 28 13.9999C28 6.28038 21.7196 0 14 0C6.28038 0 4.02222e-06 6.28038 4.02222e-06 13.9999C-0.00158434 16.0937 0.467277 18.1611 1.37195 20.0493C2.27662 21.9376 3.59398 23.5984 5.22671 24.9092V29.295C5.22923 31.5498 6.12609 33.7116 7.72052 35.3061C9.31495 36.9005 11.4767 37.7974 13.7316 37.7999ZM14.2684 35.2799H13.7316C12.5328 35.2784 11.3619 34.9175 10.3704 34.2436C9.37884 33.5698 8.61217 32.614 8.16944 31.5H19.8306C19.3879 32.6141 18.6212 33.5698 17.6296 34.2436C16.6381 34.9175 15.4672 35.2785 14.2684 35.2799ZM20.2534 28.98H7.74671V25.83H20.2534V28.98ZM2.52 13.9999C2.52 7.67024 7.66993 2.52 14 2.52C20.3301 2.52 25.48 7.67024 25.48 13.9999C25.4762 15.8064 25.0478 17.5866 24.2296 19.1972C23.4114 20.8077 22.2261 22.2034 20.7694 23.2717L20.7174 23.31H7.28263L7.23027 23.2717C5.77363 22.2033 4.58844 20.8076 3.77026 19.1971C2.95209 17.5866 2.52382 15.8063 2.52 13.9999Z" fill="white"/>
<path d="M17.3368 8.41638C16.007 8.41638 14.8268 8.94094 14.0272 9.84254C13.2277 8.94094 12.0475 8.41638 10.7177 8.41638C9.55951 8.41778 8.44916 8.8782 7.6302 9.69664C6.81123 10.5151 6.35052 11.6247 6.34912 12.7822C6.34912 17.5673 13.3528 21.3907 13.6506 21.5515C13.7664 21.6138 13.8958 21.6464 14.0272 21.6464C14.1587 21.6464 14.2881 21.6138 14.4039 21.5515C14.7017 21.3907 21.7053 17.5673 21.7053 12.7822C21.7039 11.6247 21.2432 10.5151 20.4243 9.69664C19.6053 8.8782 18.495 8.41778 17.3368 8.41638ZM16.9734 17.8333C16.0515 18.615 15.0661 19.3186 14.0272 19.9368C12.9884 19.3186 12.0029 18.615 11.0811 17.8333C9.64674 16.6036 7.9377 14.7283 7.9377 12.7822C7.9377 12.0453 8.23059 11.3387 8.75194 10.8177C9.27329 10.2966 9.9804 10.0039 10.7177 10.0039C11.8959 10.0039 12.8821 10.6257 13.2919 11.6272C13.3515 11.7732 13.4533 11.8982 13.5843 11.9861C13.7152 12.074 13.8694 12.121 14.0272 12.121C14.185 12.121 14.3392 12.074 14.4702 11.9861C14.6012 11.8982 14.703 11.7732 14.7626 11.6272C15.1723 10.6257 16.1586 10.0039 17.3368 10.0039C18.0741 10.0039 18.7812 10.2966 19.3025 10.8177C19.8239 11.3387 20.1168 12.0453 20.1168 12.7822C20.1168 14.7283 18.4077 16.6036 16.9734 17.8333Z" fill="white"/>
<path d="M53.4141 8.29846V12.5641H56.3672V14.7203H53.4141V18.9391H50.8125V8.29846H53.4141ZM36.9375 13.7594C36.9258 10.9352 39.3398 9.00159 42.5625 9.00159C45.7852 9.00159 48.1758 10.9352 48.1875 13.7594C48.1758 16.525 45.7852 18.5055 42.5625 18.4938C39.3398 18.5055 36.9258 16.525 36.9375 13.7594ZM39.4922 13.7594C39.4688 15.3649 40.7695 16.4313 42.5625 16.4313C44.3438 16.4313 45.6445 15.3649 45.6562 13.7594C45.6445 12.1539 44.3438 11.111 42.5625 11.111C40.7695 11.111 39.4688 12.1539 39.4922 13.7594ZM39.5625 21.8688V19.8531H53.4141V25.4078H42.1641V27.1656H54.0703V29.2281H39.5859V23.5094H50.8125V21.8688H39.5625ZM74.2622 10.2438V12.2828C74.2388 14.9196 74.2388 17.861 73.4184 22.2906L70.7934 22.0094C71.6255 17.8844 71.6255 14.8727 71.6372 12.3297H58.9809V10.2438H74.2622ZM56.9653 26.7438V24.611H64.0903V17.2516H66.6684V24.611H76.2778V26.7438H56.9653ZM94.8759 8.3219V20.0641H92.2509V8.3219H94.8759ZM77.2275 17.65C80.6494 16.5836 82.4423 13.9 82.4306 11.111V9.0719H85.1259V11.111C85.1142 13.7711 86.9072 16.3141 90.2588 17.275L89.0166 19.361C86.5439 18.5992 84.7744 17.0289 83.8134 15.0016C82.8408 17.1813 81.0361 18.9039 78.4931 19.7125L77.2275 17.65ZM80.3681 29.2281V27.1188H83.2509V23.1813H80.5556V21.1188H94.9931V23.1813H92.3213V27.1188H95.1806V29.2281H80.3681ZM85.8291 27.1188H89.7431V23.1813H85.8291V27.1188ZM105.248 22.0328C105.224 23.8258 106.033 25.6774 107.861 26.8727C109.701 25.5953 110.521 23.6383 110.544 22.0328V21.0485H113.099V22.0328C113.087 24.2477 114.388 26.3688 117.224 27.2594L115.912 29.2047C113.849 28.4781 112.501 27.1188 111.775 25.4078C111.072 27.0836 109.818 28.5836 107.873 29.3688C105.904 28.6305 104.638 27.2008 103.958 25.5016C103.197 27.1305 101.861 28.4781 99.9038 29.2047L98.6381 27.2594C101.38 26.3219 102.705 24.1305 102.716 22.0328V21.0485H105.248V22.0328ZM97.7709 14.4625C97.7709 11.5328 100.162 9.42346 103.373 9.42346C106.08 9.42346 108.259 11.0172 108.798 13.361H112.63V8.29846H115.232V20.2516H112.63V15.4703H108.822C108.33 17.8844 106.126 19.5133 103.373 19.5016C100.162 19.5133 97.7709 17.4156 97.7709 14.4625ZM100.279 14.4625C100.267 16.1852 101.58 17.3336 103.373 17.3453C105.119 17.3336 106.419 16.1852 106.419 14.4625C106.419 12.7164 105.119 11.6031 103.373 11.6031C101.58 11.6031 100.267 12.7164 100.279 14.4625ZM125.51 11.3453C125.498 14.2281 127.185 16.8649 130.502 17.9078L129.096 19.9469C126.787 19.1266 125.17 17.5797 124.268 15.5758C123.33 17.8844 121.56 19.7008 118.994 20.6031L117.611 18.4938C121.115 17.3453 122.873 14.5211 122.885 11.4625V9.4469H125.51V11.3453ZM121.127 25.4078C121.103 22.8297 123.857 21.318 128.322 21.3297C132.81 21.318 135.553 22.8297 135.564 25.4078C135.553 27.986 132.81 29.4625 128.322 29.4625C123.857 29.4625 121.103 27.986 121.127 25.4078ZM123.705 25.4078C123.693 26.6969 125.381 27.4117 128.322 27.4235C131.287 27.4117 132.963 26.6969 132.963 25.4078C132.963 24.0719 131.287 23.3571 128.322 23.3453C125.381 23.3571 123.693 24.0719 123.705 25.4078ZM128.674 14.5328V12.4H132.893V8.29846H135.494V20.7672H132.893V14.5328H128.674Z" fill="white"/>
</svg>
