<svg width="30" height="41" viewBox="0 0 30 41" fill="none" xmlns="http://www.w3.org/2000/svg">
<path d="M14.7124 40.4999H15.2875C17.7035 40.4972 20.0197 39.5363 21.728 37.8279C23.4364 36.1196 24.3973 33.8034 24.4 31.3875V26.6884C26.1494 25.284 27.5608 23.5045 28.5301 21.4814C29.4993 19.4583 30.0017 17.2432 30 14.9999C30 6.72898 23.271 0 15 0C6.72898 0 4.30952e-06 6.72898 4.30952e-06 14.9999C-0.00169751 17.2432 0.500654 19.4583 1.46995 21.4814C2.43924 23.5046 3.8507 25.2841 5.60005 26.6884V31.3875C5.60275 33.8034 6.56367 36.1196 8.27199 37.8279C9.98031 39.5363 12.2965 40.4972 14.7124 40.4999ZM15.2875 37.7999H14.7124C13.428 37.7983 12.1735 37.4116 11.1111 36.6896C10.0488 35.9676 9.22733 34.9436 8.75297 33.75H21.2471C20.7727 34.9436 19.9513 35.9676 18.8889 36.6896C17.8265 37.4116 16.572 37.7983 15.2875 37.7999ZM21.7 31.05H8.30005V27.675H21.7V31.05ZM2.7 14.9999C2.7 8.21811 8.21778 2.7 15 2.7C21.7822 2.7 27.3 8.21811 27.3 14.9999C27.2959 16.9354 26.837 18.8428 25.9603 20.5684C25.0836 22.2939 23.8137 23.7893 22.2529 24.934L22.1972 24.975H7.80282L7.74671 24.934C6.18604 23.7893 4.91619 22.2939 4.03957 20.5683C3.16295 18.8428 2.70409 16.9354 2.7 14.9999Z" fill="#7B39D1"/>
<path d="M18.5752 9.01758C17.1505 9.01758 15.886 9.5796 15.0293 10.5456C14.1726 9.5796 12.9081 9.01758 11.4834 9.01758C10.2424 9.01908 9.05278 9.51238 8.17532 10.3893C7.29785 11.2662 6.80424 12.4551 6.80273 13.6952C6.80273 18.8222 14.3066 22.9186 14.6258 23.0909C14.7498 23.1576 14.8884 23.1926 15.0293 23.1926C15.1701 23.1926 15.3088 23.1576 15.4328 23.0909C15.7519 22.9186 23.2558 18.8222 23.2558 13.6952C23.2543 12.4551 22.7607 11.2662 21.8833 10.3893C21.0058 9.51238 19.8161 9.01908 18.5752 9.01758ZM18.1859 19.1071C17.1982 19.9447 16.1423 20.6986 15.0293 21.3609C13.9163 20.6986 12.8604 19.9447 11.8727 19.1071C10.3359 17.7896 8.50478 15.7803 8.50478 13.6952C8.50478 12.9057 8.81859 12.1486 9.37718 11.5904C9.93578 11.0321 10.6934 10.7185 11.4834 10.7185C12.7457 10.7185 13.8024 11.3847 14.2414 12.4578C14.3053 12.6142 14.4143 12.748 14.5547 12.8423C14.695 12.9365 14.8602 12.9868 15.0293 12.9868C15.1983 12.9868 15.3636 12.9365 15.5039 12.8423C15.6442 12.748 15.7533 12.6142 15.8172 12.4578C16.2562 11.3847 17.3129 10.7185 18.5752 10.7185C19.3652 10.7185 20.1228 11.0321 20.6814 11.5904C21.24 12.1486 21.5538 12.9057 21.5538 13.6952C21.5538 15.7803 19.7227 17.7896 18.1859 19.1071Z" fill="#7B39D1"/>
</svg>
