<svg width="183" height="68" viewBox="0 0 183 68" fill="none" xmlns="http://www.w3.org/2000/svg">
<path d="M16.5039 10.7383V11.793H9.17969V18.0234H7.98828V11.793H0.742188V10.7383H16.5039ZM2.59766 5.26953C2.58789 2.96484 5 1.51953 8.59375 1.51953C12.1875 1.51953 14.5898 2.96484 14.5898 5.26953C14.5898 7.56445 12.1875 9.00977 8.59375 9C5 9.00977 2.58789 7.56445 2.59766 5.26953ZM3.84766 5.26953C3.83789 6.90039 5.78125 7.98438 8.59375 7.98438C11.3965 7.98438 13.3301 6.90039 13.3398 5.26953C13.3301 3.63867 11.3965 2.53516 8.59375 2.53516C5.78125 2.53516 3.83789 3.63867 3.84766 5.26953ZM32.207 0.796875V18.043H30.9961V0.796875H32.207ZM19.043 3.49219V2.4375H26.9922V8.41406H20.332V12.7695H20.4883C23.3301 12.7695 25.9473 12.6426 29.1797 12.125L29.2969 13.1797C26.0254 13.6875 23.3887 13.8242 20.4883 13.8242H19.0625V7.37891H25.7617V3.49219H19.043ZM48.5938 0.796875V7.92578H51.5039V8.98047H48.5938V18.0234H47.3633V0.796875H48.5938ZM35.5273 13.668C40.1172 11.3926 42.6172 7.86719 42.9199 3.70703H36.2891V2.67188H44.1797C44.1602 7.45703 41.7871 11.9004 36.2109 14.6445L35.5273 13.668ZM73.1445 8.47266V9.50781H57.4414V8.47266H64.668V6.57812H59.5117V1.38281H71.0938V6.57812H65.8594V8.47266H73.1445ZM59.375 12.1055V11.1289H71.0742V14.8008H60.625V16.793H71.6211V17.8086H59.4336V13.8633H69.8828V12.1055H59.375ZM60.7227 5.5625H69.8633V2.39844H60.7227V5.5625ZM88.1445 0.796875V5.17188H90.8203V6.20703H88.1445V10.9531H86.9141V0.796875H88.1445ZM75.4883 2.75V1.69531H83.2617V6.20703H76.7578V8.88281H76.8555C80.3809 8.89258 82.4902 8.77539 85.0391 8.29688L85.1562 9.35156C82.5488 9.82031 80.4297 9.91797 76.8555 9.91797H75.5273V5.23047H82.0508V2.75H75.4883ZM75.5078 16.8711C77.6367 16.0703 79.0918 14.166 79.1016 12.4961V11.5781H80.2539V12.4961C80.2441 14.0977 81.1621 15.7773 82.8711 16.7148C84.5996 15.6895 85.5273 13.8535 85.5273 12.4961V11.5781H86.7383V12.4961C86.7285 14.293 88.125 16.1094 90.332 16.8711L89.6875 17.8086C87.959 17.1641 86.6992 15.9141 86.1133 14.4297C85.5957 15.8555 84.5312 17.2617 82.8906 17.9648C81.2109 17.291 80.1367 15.9727 79.6484 14.4883C79.0234 15.9043 77.7832 17.1738 76.1328 17.8086L75.5078 16.8711ZM94.2773 9.72266C97.5 9.73242 99.5703 9.625 101.992 9.13672L102.148 10.1914C99.6484 10.6406 97.5586 10.7676 94.2773 10.7773H92.9883V2.30078H100.957V3.35547H94.2188V9.72266H94.2773ZM95.2344 17.75V12.4766H96.4648V16.7148H106.699V17.75H95.2344ZM99.8047 6.69531V5.67969H104.98V0.796875H106.211V13.3945H104.98V6.69531H99.8047ZM119.844 3.62891C119.834 6.12891 121.777 8.29688 124.238 9.15625L123.535 10.1133C121.611 9.38086 120.01 7.91602 119.277 6.01172C118.564 8.16992 116.895 9.82031 114.824 10.6406L114.16 9.625C116.699 8.69727 118.633 6.41211 118.652 3.66797V1.79297H119.844V3.62891ZM116.953 14.7812C116.934 12.7305 119.102 11.5488 122.656 11.5391C126.211 11.5488 128.379 12.7305 128.379 14.7812C128.379 16.8125 126.211 17.9648 122.656 17.9648C119.102 17.9648 116.934 16.8125 116.953 14.7812ZM118.164 14.7812C118.145 16.1191 119.902 16.959 122.656 16.9688C125.41 16.959 127.168 16.1191 127.168 14.7812C127.168 13.4043 125.41 12.5449 122.656 12.5547C119.902 12.5449 118.145 13.4043 118.164 14.7812ZM123.066 5.67969V4.64453H127.09V0.796875H128.32V11.0312H127.09V5.67969H123.066ZM137.402 6.28516C137.402 9.24414 139.766 12.2129 142.188 13.2773L141.484 14.2539C139.492 13.3262 137.607 11.2754 136.807 8.82422C135.996 11.4023 134.121 13.6875 132.188 14.6836L131.445 13.707C133.789 12.5547 136.162 9.27344 136.172 6.28516V3.64844H131.973V2.59375H141.66V3.64844H137.402V6.28516ZM144.316 18.0234V0.796875H145.547V18.0234H144.316ZM154.629 3.29688C154.619 5.92383 156.631 8.20898 159.102 9.11719L158.457 10.0938C156.465 9.32227 154.785 7.75 154.023 5.71875C153.281 7.88672 151.602 9.58594 149.59 10.4062L148.926 9.42969C151.426 8.47266 153.389 6.04102 153.398 3.29688V1.63672H154.629V3.29688ZM151.348 13.1211V12.1055H162.852V18.0234H161.621V13.1211H151.348ZM161.621 11.207V0.796875H162.852V11.207H161.621ZM180.117 0.796875V18.043H178.887V0.796875H180.117ZM166.66 8.12109C166.66 4.49805 168.467 2.17383 171.016 2.16406C173.545 2.17383 175.371 4.49805 175.371 8.12109C175.371 11.7539 173.545 14.0781 171.016 14.0781C168.467 14.0781 166.66 11.7539 166.66 8.12109ZM167.852 8.12109C167.852 11.002 169.15 12.9844 171.016 12.9844C172.881 12.9844 174.17 11.002 174.16 8.12109C174.17 5.24023 172.881 3.26758 171.016 3.25781C169.15 3.26758 167.852 5.24023 167.852 8.12109Z" fill="#6823C2"/>
<path d="M29.0234 25.6641V32.7734H33.9453V36.3672H29.0234V43.3984H24.6875V25.6641H29.0234ZM1.5625 34.7656C1.54297 30.0586 5.56641 26.8359 10.9375 26.8359C16.3086 26.8359 20.293 30.0586 20.3125 34.7656C20.293 39.375 16.3086 42.6758 10.9375 42.6562C5.56641 42.6758 1.54297 39.375 1.5625 34.7656ZM5.82031 34.7656C5.78125 37.4414 7.94922 39.2188 10.9375 39.2188C13.9062 39.2188 16.0742 37.4414 16.0938 34.7656C16.0742 32.0898 13.9062 30.3516 10.9375 30.3516C7.94922 30.3516 5.78125 32.0898 5.82031 34.7656ZM5.9375 48.2812V44.9219H29.0234V54.1797H10.2734V57.1094H30.1172V60.5469H5.97656V51.0156H24.6875V48.2812H5.9375ZM64.5703 28.9062V32.3047C64.5312 36.6992 64.5312 41.6016 63.1641 48.9844L58.7891 48.5156C60.1758 41.6406 60.1758 36.6211 60.1953 32.3828H39.1016V28.9062H64.5703ZM35.7422 56.4062V52.8516H47.6172V40.5859H51.9141V52.8516H67.9297V56.4062H35.7422ZM99.7266 25.7031V45.2734H95.3516V25.7031H99.7266ZM70.3125 41.25C76.0156 39.4727 79.0039 35 78.9844 30.3516V26.9531H83.4766V30.3516C83.457 34.7852 86.4453 39.0234 92.0312 40.625L89.9609 44.1016C85.8398 42.832 82.8906 40.2148 81.2891 36.8359C79.668 40.4688 76.6602 43.3398 72.4219 44.6875L70.3125 41.25ZM75.5469 60.5469V57.0312H80.3516V50.4688H75.8594V47.0312H99.9219V50.4688H95.4688V57.0312H100.234V60.5469H75.5469ZM84.6484 57.0312H91.1719V50.4688H84.6484V57.0312ZM117.812 48.5547C117.773 51.543 119.121 54.6289 122.168 56.6211C125.234 54.4922 126.602 51.2305 126.641 48.5547V46.9141H130.898V48.5547C130.879 52.2461 133.047 55.7812 137.773 57.2656L135.586 60.5078C132.148 59.2969 129.902 57.0312 128.691 54.1797C127.52 56.9727 125.43 59.4727 122.188 60.7812C118.906 59.5508 116.797 57.168 115.664 54.3359C114.395 57.0508 112.168 59.2969 108.906 60.5078L106.797 57.2656C111.367 55.7031 113.574 52.0508 113.594 48.5547V46.9141H117.812V48.5547ZM105.352 35.9375C105.352 31.0547 109.336 27.5391 114.688 27.5391C119.199 27.5391 122.832 30.1953 123.73 34.1016H130.117V25.6641H134.453V45.5859H130.117V37.6172H123.77C122.949 41.6406 119.277 44.3555 114.688 44.3359C109.336 44.3555 105.352 40.8594 105.352 35.9375ZM109.531 35.9375C109.512 38.8086 111.699 40.7227 114.688 40.7422C117.598 40.7227 119.766 38.8086 119.766 35.9375C119.766 33.0273 117.598 31.1719 114.688 31.1719C111.699 31.1719 109.512 33.0273 109.531 35.9375ZM152.383 30.7422C152.363 35.5469 155.176 39.9414 160.703 41.6797L158.359 45.0781C154.512 43.7109 151.816 41.1328 150.312 37.793C148.75 41.6406 145.801 44.668 141.523 46.1719L139.219 42.6562C145.059 40.7422 147.988 36.0352 148.008 30.9375V27.5781H152.383V30.7422ZM145.078 54.1797C145.039 49.8828 149.629 47.3633 157.07 47.3828C164.551 47.3633 169.121 49.8828 169.141 54.1797C169.121 58.4766 164.551 60.9375 157.07 60.9375C149.629 60.9375 145.039 58.4766 145.078 54.1797ZM149.375 54.1797C149.355 56.3281 152.168 57.5195 157.07 57.5391C162.012 57.5195 164.805 56.3281 164.805 54.1797C164.805 51.9531 162.012 50.7617 157.07 50.7422C152.168 50.7617 149.355 51.9531 149.375 54.1797ZM157.656 36.0547V32.5H164.688V25.6641H169.023V46.4453H164.688V36.0547H157.656Z" fill="#6823C2"/>
</svg>
